<svg width="256" height="256" viewBox="0 0 256 256" fill="none" xmlns="http://www.w3.org/2000/svg">
<g clip-path="url(#clip0_1064_12)">
<rect width="256" height="256" rx="48" fill="#100C07"/>
<path d="M75.67 121.46H179.914V137.882L149.11 137.27V134.414H106.576L106.678 137.27L75.67 137.882V121.46ZM118 89.228H137.38V128.804H118V89.228ZM75.67 80.558H149.314V96.98H75.67V80.558ZM127.792 186.332C136.768 186.332 143.5 184.428 147.988 180.62C152.476 176.744 154.72 170.828 154.72 162.872V161.444C154.72 153.556 152.476 147.64 147.988 143.696C143.5 139.752 136.768 137.78 127.792 137.78C118.816 137.78 112.084 139.752 107.596 143.696C103.108 147.64 100.864 153.556 100.864 161.444V162.872C100.864 170.828 103.108 176.744 107.596 180.62C112.084 184.428 118.816 186.332 127.792 186.332ZM99.028 133.088H156.658V137.984C161.894 139.208 166.042 141.962 169.102 146.246C172.23 150.462 173.794 156.582 173.794 164.606V166.544C173.794 178.716 169.918 187.93 162.166 194.186C154.482 200.442 143.024 203.57 127.792 203.57C112.628 203.57 101.17 200.442 93.418 194.186C85.666 187.93 81.79 178.716 81.79 166.544V164.606C81.79 156.582 83.354 150.462 86.482 146.246C89.678 141.962 93.86 139.208 99.028 137.984V133.088ZM157.372 43.43H173.386C175.902 47.17 177.84 51.352 179.2 55.976C180.56 60.532 181.24 65.428 181.24 70.664C181.24 88.208 173.216 96.98 157.168 96.98H145.132L143.704 80.558H150.13C154.754 80.558 158.086 79.504 160.126 77.396C162.166 75.22 163.186 71.684 163.186 66.788C163.186 62.776 162.642 58.798 161.554 54.854C160.466 50.91 159.072 47.102 157.372 43.43Z" fill="#DAC8B1"/>
</g>
<defs>
<clipPath id="clip0_1064_12">
<rect width="256" height="256" rx="48" fill="white"/>
</clipPath>
</defs>
</svg>
